<?xml version="1.0" encoding="UTF-8" standalone="no"?>
<!-- Generator: Adobe Illustrator 19.1.0, SVG Export Plug-In . SVG Version: 6.00 Build 0)  -->

<svg
   version="1.1"
   id="Capa_1"
   x="0px"
   y="0px"
   viewBox="0 0 474 355.39999"
   xml:space="preserve"
   sodipodi:docname="mail.svg"
   inkscape:version="1.2.1 (9c6d41e410, 2022-07-14)"
   width="474"
   height="355.39999"
   xmlns:inkscape="http://www.inkscape.org/namespaces/inkscape"
   xmlns:sodipodi="http://sodipodi.sourceforge.net/DTD/sodipodi-0.dtd"
   xmlns="http://www.w3.org/2000/svg"
   xmlns:svg="http://www.w3.org/2000/svg"><defs
   id="defs2034" /><sodipodi:namedview
   id="namedview2032"
   pagecolor="#ffffff"
   bordercolor="#000000"
   borderopacity="0.25"
   inkscape:showpageshadow="2"
   inkscape:pageopacity="0.0"
   inkscape:pagecheckerboard="0"
   inkscape:deskcolor="#d1d1d1"
   showgrid="false"
   inkscape:zoom="1.850211"
   inkscape:cx="311.04561"
   inkscape:cy="352.93272"
   inkscape:window-width="1858"
   inkscape:window-height="1057"
   inkscape:window-x="54"
   inkscape:window-y="-8"
   inkscape:window-maximized="1"
   inkscape:current-layer="Capa_1" />
<g
   id="g1999"
   style="fill:#bf1522;fill-opacity:1"
   transform="translate(0,-59.3)">
	<path
   d="M 437.5,59.3 H 36.5 C 16.4,59.3 0,75.7 0,95.8 v 282.4 c 0,20.1 16.4,36.5 36.5,36.5 h 401 c 20.1,0 36.5,-16.4 36.5,-36.5 V 95.8 C 474,75.7 457.6,59.3 437.5,59.3 Z m -5.3,27 L 239.5,251.1 46.8,86.3 Z M 447,378.2 c 0,5.2 -4.3,9.5 -9.5,9.5 h -401 c -5.2,0 -9.5,-4.3 -9.5,-9.5 V 104.9 l 203.7,174.2 c 0.1,0.1 0.3,0.2 0.4,0.3 0.1,0.1 0.3,0.2 0.4,0.3 0.3,0.2 0.5,0.4 0.8,0.5 0.1,0.1 0.2,0.1 0.3,0.2 0.4,0.2 0.8,0.4 1.2,0.6 0.1,0 0.2,0.1 0.3,0.1 0.3,0.1 0.6,0.3 1,0.4 0.1,0 0.3,0.1 0.4,0.1 0.3,0.1 0.6,0.2 0.9,0.2 0.1,0 0.3,0.1 0.4,0.1 0.3,0.1 0.7,0.1 1,0.2 0.1,0 0.2,0 0.3,0 0.4,0 0.9,0.1 1.3,0.1 v 0 0 c 0.4,0 0.9,0 1.3,-0.1 0.1,0 0.2,0 0.3,0 0.3,0 0.7,-0.1 1,-0.2 0.1,0 0.3,-0.1 0.4,-0.1 0.3,-0.1 0.6,-0.2 0.9,-0.2 0.1,0 0.3,-0.1 0.4,-0.1 0.3,-0.1 0.6,-0.2 1,-0.4 0.1,0 0.2,-0.1 0.3,-0.1 0.4,-0.2 0.8,-0.4 1.2,-0.6 0.1,-0.1 0.2,-0.1 0.3,-0.2 0.3,-0.2 0.5,-0.3 0.8,-0.5 0.1,-0.1 0.3,-0.2 0.4,-0.3 0.1,-0.1 0.3,-0.2 0.4,-0.3 L 447,109.2 Z"
   id="path1997"
   style="fill:#bf1522;fill-opacity:1" />
</g>
<g
   id="g2001">
</g>
<g
   id="g2003">
</g>
<g
   id="g2005">
</g>
<g
   id="g2007">
</g>
<g
   id="g2009">
</g>
<g
   id="g2011">
</g>
<g
   id="g2013">
</g>
<g
   id="g2015">
</g>
<g
   id="g2017">
</g>
<g
   id="g2019">
</g>
<g
   id="g2021">
</g>
<g
   id="g2023">
</g>
<g
   id="g2025">
</g>
<g
   id="g2027">
</g>
<g
   id="g2029">
</g>
</svg>
